<?xml version="1.0" standalone="no"?>
<!DOCTYPE svg PUBLIC "-//W3C//DTD SVG 20010904//EN"
 "http://www.w3.org/TR/2001/REC-SVG-20010904/DTD/svg10.dtd">
<svg version="1.0" xmlns="http://www.w3.org/2000/svg"
 width="500.000000pt" height="500.000000pt" viewBox="0 0 500.000000 500.000000"
 preserveAspectRatio="xMidYMid meet">
<metadata>
Created by potrace 1.14, written by Peter Selinger 2001-2017
</metadata>
<g transform="translate(0.000000,500.000000) scale(0.100000,-0.100000)"
fill="#000000" stroke="none">
<path d="M1344 3226 c-11 -29 -171 -771 -168 -778 2 -3 159 -115 349 -248 190
-132 345 -243 345 -246 0 -7 -41 -196 -46 -216 -5 -16 -22 -18 -170 -18 -189
0 -174 -11 -145 113 l19 78 -22 14 c-11 7 -104 65 -206 129 -157 98 -186 113
-192 98 -4 -9 -40 -169 -79 -355 l-73 -338 19 -35 c10 -19 33 -43 50 -54 31
-19 52 -20 611 -20 l579 0 93 426 c51 235 91 428 90 429 -2 1 -156 109 -343
240 -187 131 -343 240 -347 244 -4 3 2 45 14 94 l20 87 164 0 c90 0 164 -2
164 -4 0 -3 -7 -37 -15 -77 -9 -40 -14 -73 -13 -74 2 -1 86 -53 188 -115 102
-63 194 -119 206 -127 20 -13 21 -8 74 233 41 184 51 249 44 262 -6 9 -55 74
-108 145 l-97 127 -500 0 c-424 0 -500 -2 -505 -14z"/>
<path d="M2457 3218 c118 -149 187 -247 185 -263 -1 -11 -78 -371 -172 -800
-93 -429 -170 -786 -170 -792 0 -10 52 -13 228 -13 l228 0 81 373 82 372 -40
68 c-47 79 -52 61 55 202 l61 80 72 330 c40 181 79 358 87 393 l14 62 -360 0
c-287 0 -358 -3 -351 -12z"/>
<path d="M3287 2749 l-307 -480 59 -270 c53 -249 57 -273 45 -307 -25 -70 -10
-139 43 -194 20 -21 32 -56 59 -184 19 -87 37 -160 39 -162 3 -3 60 21 129 53
l124 59 -59 35 -59 35 0 58 c0 32 3 58 6 58 3 0 62 -27 131 -60 69 -33 127
-60 129 -60 2 0 4 4 4 10 0 5 -49 35 -110 65 l-110 55 0 65 c0 75 -17 75 146
2 l100 -44 -26 158 c-15 88 -30 162 -33 165 -3 4 -21 -3 -39 -14 -18 -11 -80
-44 -137 -72 l-103 -51 -42 25 c-72 42 -74 50 -14 76 125 53 318 154 318 166
0 19 -3 18 -58 -16 -27 -17 -111 -60 -187 -96 -109 -53 -139 -64 -146 -53 -9
14 -29 77 -29 91 0 4 87 49 194 101 106 52 196 99 199 104 4 5 -3 64 -14 130
l-20 119 282 445 c155 244 286 450 291 457 8 9 -42 12 -244 12 l-254 0 -307
-481z"/>
<path d="M3767 2248 c-4 -16 -34 -54 -67 -85 -57 -55 -60 -61 -60 -105 0 -27
4 -48 8 -48 5 0 34 26 65 58 62 66 85 124 70 176 l-9 31 -7 -27z"/>
<path d="M3801 2135 c-7 -20 -37 -62 -67 -95 -53 -57 -55 -60 -52 -110 l3 -50
52 45 c61 53 93 114 93 176 0 62 -13 77 -29 34z"/>
</g>
</svg>
