<svg width="64" height="64" viewBox="0 0 64 64" fill="none" xmlns="http://www.w3.org/2000/svg">
<rect width="64" height="64" rx="10" fill="url(#paint0_linear_301_1103)"/>
<path fill-rule="evenodd" clip-rule="evenodd" d="M42.6667 34.6667C42.6667 35.4013 42.0694 36 41.3334 36H32.1161H31.8841H22.6667C21.9307 36 21.3334 35.4013 21.3334 34.6667V24C21.3334 23.2653 21.9307 22.6667 22.6667 22.6667H41.3334C42.0694 22.6667 42.6667 23.2653 42.6667 24V34.6667ZM41.3334 20H22.6667C20.4614 20 18.6667 21.7947 18.6667 24V34.6667C18.6667 36.872 20.4614 38.6667 22.6667 38.6667H30.6667V41.3333H25.3334C24.6001 41.3333 24.0001 41.9333 24.0001 42.6667C24.0001 43.4 24.6001 44 25.3334 44H38.6667C39.4001 44 40.0001 43.4 40.0001 42.6667C40.0001 41.9333 39.4001 41.3333 38.6667 41.3333H33.3334V38.6667H41.3334C43.5387 38.6667 45.3334 36.872 45.3334 34.6667V24C45.3334 21.7947 43.5387 20 41.3334 20Z" fill="#03133D"/>
<mask id="mask0_301_1103" style="mask-type:luminance" maskUnits="userSpaceOnUse" x="18" y="20" width="28" height="24">
<path fill-rule="evenodd" clip-rule="evenodd" d="M42.6667 34.6667C42.6667 35.4013 42.0694 36 41.3334 36H32.1161H31.8841H22.6667C21.9307 36 21.3334 35.4013 21.3334 34.6667V24C21.3334 23.2653 21.9307 22.6667 22.6667 22.6667H41.3334C42.0694 22.6667 42.6667 23.2653 42.6667 24V34.6667ZM41.3334 20H22.6667C20.4614 20 18.6667 21.7947 18.6667 24V34.6667C18.6667 36.872 20.4614 38.6667 22.6667 38.6667H30.6667V41.3333H25.3334C24.6001 41.3333 24.0001 41.9333 24.0001 42.6667C24.0001 43.4 24.6001 44 25.3334 44H38.6667C39.4001 44 40.0001 43.4 40.0001 42.6667C40.0001 41.9333 39.4001 41.3333 38.6667 41.3333H33.3334V38.6667H41.3334C43.5387 38.6667 45.3334 36.872 45.3334 34.6667V24C45.3334 21.7947 43.5387 20 41.3334 20Z" fill="white"/>
</mask>
<g mask="url(#mask0_301_1103)">
<rect x="16" y="16" width="32" height="32" fill="white"/>
</g>
<defs>
<linearGradient id="paint0_linear_301_1103" x1="-0.415645" y1="71.8441" x2="70.9528" y2="16.8239" gradientUnits="userSpaceOnUse">
<stop stop-color="#0097FE"/>
<stop offset="1" stop-color="#14358A"/>
</linearGradient>
</defs>
</svg>
